<svg width="21" height="21" viewBox="0 0 21 21" fill="none" xmlns="http://www.w3.org/2000/svg">
<path d="M10.4 0C11.7791 0 13.1018 0.547855 14.077 1.52304C15.0521 2.49823 15.6 3.82087 15.6 5.2C15.6 6.57913 15.0521 7.90177 14.077 8.87696C13.1018 9.85215 11.7791 10.4 10.4 10.4C9.02087 10.4 7.69823 9.85215 6.72304 8.87696C5.74786 7.90177 5.2 6.57913 5.2 5.2C5.2 3.82087 5.74786 2.49823 6.72304 1.52304C7.69823 0.547855 9.02087 0 10.4 0ZM10.4 13C16.146 13 20.8 15.327 20.8 18.2V20.8H0L0 18.2C0 15.327 4.654 13 10.4 13Z" fill="#1B9DA1"/>
</svg>
