<svg width="24" height="24" viewBox="0 0 24 24" fill="none" xmlns="http://www.w3.org/2000/svg">
<path fill-rule="evenodd" clip-rule="evenodd" d="M1.46978 22.53C1.17689 22.2371 1.17689 21.7622 1.46978 21.4693L21.4697 1.46939C21.7626 1.17649 22.2375 1.17649 22.5304 1.46939C22.8233 1.76228 22.8233 2.23715 22.5304 2.53005L2.53044 22.53C2.23755 22.8229 1.76268 22.8229 1.46978 22.53Z" fill="#A8DADB"/>
<path fill-rule="evenodd" clip-rule="evenodd" d="M1.46967 1.46966C1.76256 1.17677 2.23744 1.17677 2.53033 1.46966L22.5303 21.4696C22.8231 21.7625 22.8231 22.2373 22.5303 22.5302C22.2374 22.8231 21.7625 22.8231 21.4696 22.5302L1.46967 2.53032C1.17678 2.23743 1.17678 1.76255 1.46967 1.46966Z" fill="#A8DADB"/>
</svg>
