<svg width="73" height="17" viewBox="0 0 73 17" fill="none" xmlns="http://www.w3.org/2000/svg">
<path d="M41.8979 2.10999C41.776 1.75094 41.6163 1.44629 41.2724 1.43269H41.2507H40.9637H40.4114C40.387 1.42997 40.3599 1.42725 40.3328 1.42725H40.0567C40.0296 1.42725 40.0025 1.42997 39.9781 1.43269C39.6911 1.47621 39.5476 1.76454 39.4393 2.10183L35.1884 14.0349C35.1884 14.1927 35.3156 14.3205 35.4727 14.3205H36.3608C36.7127 14.3205 36.8942 14.0295 36.9998 13.6786L37.8472 11.1924C37.9068 11.0211 38.0666 10.9068 38.248 10.9068H42.9755C43.1542 10.9068 43.3139 11.0211 43.3735 11.1897L44.2562 13.7031C44.3645 14.054 44.554 14.345 44.9223 14.345H45.851C46.0162 14.345 46.1488 14.2172 46.1488 14.0594L41.8979 2.10999ZM38.4294 9.49507L40.5738 3.21707L42.7805 9.49507H38.4294Z" fill="#76A62D"/>
<path d="M54.3258 1.46555C54.2121 1.42202 53.5541 1.42746 53.5541 1.42746C53.1128 1.43834 52.8312 1.42746 52.6335 1.70219C52.6037 1.743 52.5821 1.78652 52.5604 1.83004L49.9259 7.55586L47.2129 1.83276C47.1912 1.78924 47.1695 1.74572 47.1397 1.70491C46.9421 1.43018 46.6605 1.43834 46.2192 1.43018C46.2192 1.43018 45.5612 1.42474 45.4475 1.46827C45.1767 1.57163 45.3554 1.9062 45.4827 2.18093L48.8104 8.85062C48.962 9.15528 49.0405 9.48985 49.0405 9.82986V13.8556C49.0405 14.1276 49.2598 14.348 49.5306 14.348H50.2264C50.4972 14.348 50.7165 14.1276 50.7165 13.8556V9.8489C50.7165 9.50889 50.795 9.17432 50.9467 8.86967L54.2879 2.17821C54.4178 1.90348 54.5965 1.56891 54.3258 1.46555Z" fill="#76A62D"/>
<path d="M67.0462 7.69436L59.0587 0.972981C58.9992 0.92402 58.9125 0.92674 58.8584 0.983862L57.6779 2.21879L64.2005 7.69436L57.6779 13.1699L58.8584 14.4049C58.9125 14.462 58.9992 14.4647 59.0587 14.4157L67.0462 7.69436Z" fill="#76A62D"/>
<path d="M72.7864 7.74856L64.7989 1.02718C64.7393 0.978219 64.6526 0.980939 64.5985 1.03806L63.418 2.27299L69.9406 7.74856L63.418 13.2241L64.5985 14.4591C64.6526 14.5162 64.7393 14.5189 64.7989 14.4699L72.7864 7.74856Z" fill="#76A62D"/>
<path d="M10.327 1.41943H9.31974C9.10855 1.41943 8.94067 1.5908 8.94067 1.80025V13.9183C8.94067 14.1386 9.11938 14.3209 9.3414 14.3209H10.3107C10.53 14.3209 10.7115 14.1414 10.7115 13.9183V1.80297C10.7088 1.5908 10.5382 1.41943 10.327 1.41943Z" fill="#76A62D"/>
<path d="M6.72307 12.7837H2.2257V1.80269C2.2257 1.59052 2.05512 1.42188 1.84664 1.42188H0.92875C0.717555 1.42188 0.549683 1.59324 0.549683 1.80269V12.7865V13.7902C0.549683 14.0404 0.750047 14.2417 0.999149 14.2417H2.22841H6.72578C6.94239 14.2417 7.11568 14.0676 7.11568 13.85V13.1754C7.11297 12.9605 6.93697 12.7837 6.72307 12.7837Z" fill="#76A62D"/>
<path d="M33.8698 2.13204C33.3093 1.75122 32.5349 1.48193 31.0538 1.48193H28.7171H28.1865C27.8453 1.48193 27.5664 1.75938 27.5664 2.10484V13.6816C27.5664 14.0352 27.8507 14.3235 28.2054 14.3235H28.6982C29.0502 14.3235 29.3372 14.0379 29.3372 13.6816V9.33215C29.8679 9.33215 31.7037 9.33215 31.9203 9.33215C32.1721 9.33215 35.405 8.82349 35.405 5.28736C35.4023 3.74778 34.6171 2.64342 33.8698 2.13204ZM31.3327 7.9993C31.1648 7.9993 29.5321 7.9993 29.5321 7.9993H29.3345V2.81478H30.7587C31.7361 2.81478 32.2479 2.99159 32.6188 3.24456C33.1143 3.58185 33.6315 4.31084 33.6315 5.32816C33.6342 7.66473 31.5006 7.9993 31.3327 7.9993Z" fill="#76A62D"/>
<path d="M25.9283 14.6091C25.8579 14.5574 25.7793 14.5193 25.6954 14.4866C25.0293 14.231 24.0573 13.5537 23.5158 13.2028C23.0961 12.9308 23.1611 12.7159 23.2179 12.6261C23.2288 12.6125 23.2423 12.5962 23.2531 12.5826C23.2558 12.5799 23.2558 12.5799 23.2558 12.5799C24.1764 11.4456 24.7098 9.82983 24.7098 7.78976C24.7098 4.1829 23.1746 1.25879 19.0076 1.25879C15.1736 1.25879 13.3324 4.1829 13.3324 7.78976C13.3324 11.3966 14.5698 14.4839 19.0076 14.4839C19.9092 14.4839 20.7378 14.3098 21.4661 13.9725H21.4688C21.6827 13.8801 21.8912 13.8828 22.1782 14.0922C24.236 15.6237 25.2568 16.1867 25.9878 16.1867C26.3398 16.1867 26.2776 15.0987 26.2776 15.0987C26.2776 15.0987 26.2261 14.8239 25.9283 14.6091ZM15.1519 7.81696C15.1519 7.8088 15.1519 7.80064 15.1519 7.78976C15.1573 5.34166 16.0454 2.74397 19.013 2.74397C22.3759 2.74397 22.8903 5.34166 22.893 7.78976C22.893 7.79792 22.893 7.80608 22.893 7.81696C22.893 10.7302 21.9535 12.9444 19.013 12.9444C15.6366 12.9444 15.1519 10.2732 15.1519 7.81696Z" fill="#76A62D"/>
</svg>
