<svg width="40" height="32" viewBox="0 0 40 32" fill="none" xmlns="http://www.w3.org/2000/svg">
<g clip-path="url(#clip0_52_4752)">
<path d="M7.24986 31.0581V29.0313C7.24986 28.256 6.76947 27.7483 5.94481 27.7483C5.53248 27.7483 5.08412 27.8821 4.77588 28.3229C4.53569 27.953 4.19141 27.7483 3.675 27.7483C3.33072 27.7483 2.98645 27.8506 2.71423 28.2206V27.8152H1.99365V31.0581H2.71423V29.2675C2.71423 28.6929 3.02248 28.4213 3.50286 28.4213C3.98324 28.4213 4.22344 28.7243 4.22344 29.2675V31.0581H4.94401V29.2675C4.94401 28.6929 5.28829 28.4213 5.73264 28.4213C6.21303 28.4213 6.45322 28.7243 6.45322 29.2675V31.0581H7.24986ZM17.9384 27.8152H16.7695V26.8353H16.0489V27.8152H15.3964V28.4567H16.0489V29.9444C16.0489 30.6882 16.3571 31.125 17.1818 31.125C17.4901 31.125 17.8343 31.0227 18.0745 30.8889L17.8664 30.2789C17.6582 30.4127 17.418 30.4481 17.2459 30.4481C16.9016 30.4481 16.7655 30.2435 16.7655 29.909V28.4567H17.9344V27.8152H17.9384ZM24.0553 27.7444C23.643 27.7444 23.3668 27.949 23.1946 28.2167V27.8113H22.474V31.0542H23.1946V29.2281C23.1946 28.6889 23.4348 28.3819 23.8832 28.3819C24.0193 28.3819 24.1914 28.4174 24.3315 28.4489L24.5397 27.7719C24.3956 27.7444 24.1914 27.7444 24.0553 27.7444ZM14.8119 28.0828C14.4676 27.8467 13.9872 27.7444 13.4708 27.7444C12.6462 27.7444 12.0977 28.1498 12.0977 28.7912C12.0977 29.3304 12.5101 29.6374 13.2306 29.7358L13.5749 29.7712C13.9512 29.8381 14.1594 29.9404 14.1594 30.1097C14.1594 30.3458 13.8832 30.515 13.4028 30.515C12.9224 30.515 12.5421 30.3458 12.3019 30.1766L11.9576 30.7157C12.3339 30.9873 12.8503 31.1211 13.3668 31.1211C14.3275 31.1211 14.88 30.6803 14.88 30.0742C14.88 29.4997 14.4316 29.1966 13.7471 29.0943L13.4028 29.0589C13.0945 29.0234 12.8543 28.9565 12.8543 28.7558C12.8543 28.5197 13.0945 28.3859 13.4748 28.3859C13.8872 28.3859 14.2995 28.5551 14.5077 28.6574L14.8119 28.0828ZM33.9832 27.7444C33.5709 27.7444 33.2947 27.949 33.1226 28.2167V27.8113H32.402V31.0542H33.1226V29.2281C33.1226 28.6889 33.3627 28.3819 33.8111 28.3819C33.9472 28.3819 34.1194 28.4174 34.2595 28.4489L34.4676 27.7798C34.3275 27.7444 34.1234 27.7444 33.9832 27.7444ZM24.7759 29.4367C24.7759 30.4166 25.4644 31.125 26.5293 31.125C27.0097 31.125 27.3539 31.0227 27.6982 30.7551L27.3539 30.1805C27.0777 30.3852 26.8055 30.4835 26.4933 30.4835C25.9088 30.4835 25.4965 30.0782 25.4965 29.4367C25.4965 28.8267 25.9088 28.4213 26.4933 28.3898C26.8015 28.3898 27.0777 28.4921 27.3539 28.6929L27.6982 28.1183C27.3539 27.8467 27.0097 27.7483 26.5293 27.7483C25.4644 27.7444 24.7759 28.4567 24.7759 29.4367ZM31.4412 29.4367V27.8152H30.7206V28.2206C30.4804 27.9176 30.1362 27.7483 29.6878 27.7483C28.7591 27.7483 28.0385 28.4567 28.0385 29.4367C28.0385 30.4166 28.7591 31.125 29.6878 31.125C30.1682 31.125 30.5125 30.9558 30.7206 30.6528V31.0581H31.4412V29.4367ZM28.7951 29.4367C28.7951 28.8621 29.1714 28.3898 29.7919 28.3898C30.3764 28.3898 30.7887 28.8306 30.7887 29.4367C30.7887 30.0113 30.3764 30.4835 29.7919 30.4835C29.1754 30.4481 28.7951 30.0073 28.7951 29.4367ZM20.1722 27.7444C19.2114 27.7444 18.5229 28.4213 18.5229 29.4327C18.5229 30.4481 19.2114 31.1211 20.2082 31.1211C20.6886 31.1211 21.169 30.9873 21.5493 30.6803L21.205 30.1726C20.9288 30.3773 20.5845 30.5111 20.2443 30.5111C19.7959 30.5111 19.3515 30.3064 19.2475 29.7358H21.6854C21.6854 29.6335 21.6854 29.5666 21.6854 29.4642C21.7174 28.4213 21.0969 27.7444 20.1722 27.7444ZM20.1722 28.3544C20.6206 28.3544 20.9288 28.626 20.9969 29.1297H19.2795C19.3475 28.6929 19.6558 28.3544 20.1722 28.3544ZM38.0745 29.4367V26.5322H37.3539V28.2206C37.1137 27.9176 36.7695 27.7483 36.3211 27.7483C35.3924 27.7483 34.6718 28.4567 34.6718 29.4367C34.6718 30.4166 35.3924 31.125 36.3211 31.125C36.8015 31.125 37.1458 30.9558 37.3539 30.6528V31.0581H38.0745V29.4367ZM35.4284 29.4367C35.4284 28.8621 35.8047 28.3898 36.4252 28.3898C37.0097 28.3898 37.422 28.8306 37.422 29.4367C37.422 30.0113 37.0097 30.4835 36.4252 30.4835C35.8047 30.4481 35.4284 30.0073 35.4284 29.4367ZM11.3051 29.4367V27.8152H10.5845V28.2206C10.3443 27.9176 10.0001 27.7483 9.5517 27.7483C8.62296 27.7483 7.90238 28.4567 7.90238 29.4367C7.90238 30.4166 8.62296 31.125 9.5517 31.125C10.0321 31.125 10.3764 30.9558 10.5845 30.6528V31.0581H11.3051V29.4367ZM8.62696 29.4367C8.62696 28.8621 9.00326 28.3898 9.62376 28.3898C10.2082 28.3898 10.6206 28.8306 10.6206 29.4367C10.6206 30.0113 10.2082 30.4835 9.62376 30.4835C9.00326 30.4481 8.62696 30.0073 8.62696 29.4367Z" fill="#07131B"/>
<path d="M25.3963 3.18652H14.5717V22.3056H25.3963V3.18652Z" fill="#FF5A00"/>
<path d="M15.2922 12.7459C15.2922 8.86148 17.1497 5.41392 20 3.18638C17.9023 1.56492 15.2562 0.584961 12.3699 0.584961C5.53243 0.584961 0 6.02393 0 12.7459C0 19.4679 5.53243 24.9068 12.3699 24.9068C15.2562 24.9068 17.9023 23.9269 20 22.3054C17.1457 20.1094 15.2922 16.6303 15.2922 12.7459Z" fill="#EB001B"/>
<path d="M40 12.7459C40 19.4679 34.4676 24.9068 27.6301 24.9068C24.7438 24.9068 22.0977 23.9269 20 22.3054C22.8863 20.0739 24.7078 16.6303 24.7078 12.7459C24.7078 8.86148 22.8503 5.41392 20 3.18638C22.0937 1.56492 24.7398 0.584961 27.6261 0.584961C34.4676 0.584961 40 6.05935 40 12.7459Z" fill="#F79E1B"/>
</g>
<defs>
<clipPath id="clip0_52_4752">
<rect width="40" height="30.5401" fill="white" transform="translate(0 0.584961)"/>
</clipPath>
</defs>
</svg>
