<svg width="25" height="25" viewBox="0 0 25 25" fill="none" xmlns="http://www.w3.org/2000/svg">
<path d="M5.02668 10.5869C6.94668 14.3602 10.04 17.4535 13.8133 19.3735L16.7467 16.4402C17.12 16.0669 17.64 15.9602 18.1067 16.1069C19.6 16.6002 21.2 16.8669 22.8667 16.8669C23.2203 16.8669 23.5594 17.0073 23.8095 17.2574C24.0595 17.5074 24.2 17.8466 24.2 18.2002V22.8669C24.2 23.2205 24.0595 23.5596 23.8095 23.8097C23.5594 24.0597 23.2203 24.2002 22.8667 24.2002C16.8551 24.2002 11.0898 21.8121 6.83893 17.5613C2.5881 13.3105 0.200012 7.5451 0.200012 1.53353C0.200012 1.17991 0.340488 0.840768 0.590536 0.59072C0.840585 0.340671 1.17972 0.200195 1.53335 0.200195L6.20001 0.200195C6.55363 0.200195 6.89277 0.340671 7.14282 0.59072C7.39287 0.840768 7.53335 1.17991 7.53335 1.53353C7.53335 3.2002 7.80001 4.8002 8.29335 6.29353C8.44001 6.7602 8.33335 7.2802 7.96001 7.65353L5.02668 10.5869Z" fill="#1B9DA1"/>
</svg>
