<svg width="41" height="14" viewBox="0 0 41 14" fill="none" xmlns="http://www.w3.org/2000/svg">
<path d="M17.6665 13.7749H14.4263L16.453 1.18555H19.6931L17.6665 13.7749Z" fill="#00579F"/>
<path d="M29.4128 1.49301C28.7737 1.23828 27.76 0.957031 26.5066 0.957031C23.3067 0.957031 21.0533 2.67124 21.0395 5.12204C21.0129 6.93023 22.6528 7.93455 23.8793 8.53746C25.133 9.15354 25.5591 9.55565 25.5591 10.1048C25.5464 10.9482 24.5461 11.337 23.6132 11.337C22.3195 11.337 21.6264 11.1365 20.573 10.6673L20.1463 10.4662L19.6929 13.2922C20.4528 13.64 21.853 13.9487 23.3067 13.9622C26.7066 13.9622 28.9201 12.2745 28.9463 9.66282C28.9592 8.22968 28.0933 7.13156 26.2264 6.23422C25.0931 5.65819 24.399 5.26978 24.399 4.6804C24.4123 4.1446 24.9861 3.59581 26.2654 3.59581C27.3188 3.56893 28.0928 3.8233 28.6791 4.07785L28.9722 4.21153L29.4128 1.49301Z" fill="#00579F"/>
<path d="M33.7194 9.31495C33.9863 8.5917 35.0131 5.79254 35.0131 5.79254C34.9996 5.81942 35.2794 5.05595 35.4394 4.58726L35.6659 5.67203C35.6659 5.67203 36.2795 8.68551 36.4127 9.31495C35.9063 9.31495 34.3594 9.31495 33.7194 9.31495ZM37.7191 1.18555H35.2128C34.4399 1.18555 33.8527 1.41304 33.5192 2.23009L28.7062 13.7747H32.1061C32.1061 13.7747 32.6659 12.2209 32.7862 11.8863C33.1591 11.8863 36.4666 11.8863 36.9464 11.8863C37.0394 12.3282 37.333 13.7747 37.333 13.7747H40.3332L37.7191 1.18555Z" fill="#00579F"/>
<path d="M11.7198 1.18555L8.54651 9.77029L8.19975 8.0292C7.61308 6.02021 5.77313 3.83749 3.71985 2.75219L6.62648 13.7616H10.053L15.1461 1.18555H11.7198Z" fill="#00579F"/>
<path d="M5.59988 1.18555H0.386586L0.333252 1.43992C4.39995 2.48464 7.09324 5.0029 8.1998 8.02973L7.06649 2.2438C6.8799 1.43974 6.30652 1.21207 5.59988 1.18555Z" fill="#FAA61A"/>
</svg>
