<svg width="28" height="28" viewBox="0 0 28 28" fill="none" xmlns="http://www.w3.org/2000/svg">
<path d="M19.7296 16.5202C19.8384 15.6226 19.92 14.725 19.92 13.8002C19.92 12.8754 19.8384 11.9778 19.7296 11.0802H24.3264C24.544 11.9506 24.68 12.8618 24.68 13.8002C24.68 14.7386 24.544 15.6498 24.3264 16.5202M17.3224 24.0818C18.1384 22.5722 18.764 20.9402 19.1992 19.2402H23.2112C21.9056 21.4842 19.8248 23.225 17.3224 24.0818ZM16.9824 16.5202H10.6176C10.4816 15.6226 10.4 14.725 10.4 13.8002C10.4 12.8754 10.4816 11.9642 10.6176 11.0802H16.9824C17.1048 11.9642 17.2 12.8754 17.2 13.8002C17.2 14.725 17.1048 15.6226 16.9824 16.5202ZM13.8 24.6258C12.6712 22.9938 11.76 21.185 11.2024 19.2402H16.3976C15.84 21.185 14.9288 22.9938 13.8 24.6258ZM8.36001 8.3602H4.38881C5.68081 6.1026 7.77521 4.3618 10.264 3.5186C9.44801 5.0282 8.83601 6.6602 8.36001 8.3602ZM4.38881 19.2402H8.36001C8.83601 20.9402 9.44801 22.5722 10.264 24.0818C7.77521 23.225 5.68081 21.4842 4.38881 19.2402ZM3.27361 16.5202C3.05601 15.6498 2.92001 14.7386 2.92001 13.8002C2.92001 12.8618 3.05601 11.9506 3.27361 11.0802H7.87041C7.76161 11.9778 7.68001 12.8754 7.68001 13.8002C7.68001 14.725 7.76161 15.6226 7.87041 16.5202M13.8 2.961C14.9288 4.593 15.84 6.4154 16.3976 8.3602H11.2024C11.76 6.4154 12.6712 4.593 13.8 2.961ZM23.2112 8.3602H19.1992C18.764 6.6602 18.1384 5.0282 17.3224 3.5186C19.8248 4.3754 21.9056 6.1026 23.2112 8.3602ZM13.8 0.200195C6.27921 0.200195 0.200012 6.3202 0.200012 13.8002C0.200012 17.4071 1.63287 20.8664 4.18336 23.4168C5.44624 24.6797 6.94549 25.6815 8.59552 26.365C10.2455 27.0484 12.014 27.4002 13.8 27.4002C17.407 27.4002 20.8662 25.9673 23.4167 23.4168C25.9672 20.8664 27.4 17.4071 27.4 13.8002C27.4 12.0142 27.0482 10.2457 26.3648 8.5957C25.6813 6.94567 24.6795 5.44642 23.4167 4.18354C22.1538 2.92067 20.6545 1.9189 19.0045 1.23543C17.3545 0.55197 15.586 0.200195 13.8 0.200195Z" fill="#1B9DA1"/>
</svg>
