<svg width="17" height="12" viewBox="0 0 17 12" fill="none" xmlns="http://www.w3.org/2000/svg">
<path d="M6.8 8.57143L11.2115 6L6.8 3.42857V8.57143ZM16.626 1.86C16.7365 2.26286 16.813 2.80286 16.864 3.48857C16.9235 4.17429 16.949 4.76571 16.949 5.28L17 6C17 7.87714 16.864 9.25714 16.626 10.14C16.4135 10.9114 15.9205 11.4086 15.1555 11.6229C14.756 11.7343 14.025 11.8114 12.903 11.8629C11.798 11.9229 10.7865 11.9486 9.8515 11.9486L8.5 12C4.9385 12 2.72 11.8629 1.8445 11.6229C1.0795 11.4086 0.5865 10.9114 0.374 10.14C0.2635 9.73714 0.187 9.19714 0.136 8.51143C0.0765001 7.82571 0.051 7.23429 0.051 6.72L0 6C0 4.12286 0.136 2.74286 0.374 1.86C0.5865 1.08857 1.0795 0.591429 1.8445 0.377143C2.244 0.265714 2.975 0.188571 4.097 0.137143C5.202 0.0771427 6.2135 0.0514285 7.1485 0.0514285L8.5 0C12.0615 0 14.28 0.137143 15.1555 0.377143C15.9205 0.591429 16.4135 1.08857 16.626 1.86Z" fill="#1F8A70"/>
</svg>
